{
    "asset" : {
        "generator" : "Khronos glTF Blender I/O v1.6.16",
        "version" : "2.0"
    },
    "extensionsUsed" : [
        "KHR_materials_transmission"
    ],
    "scene" : 0,
    "scenes" : [
        {
            "name" : "Scene",
            "nodes" : [
                0,
                1,
                2,
                3
            ]
        }
    ],
    "nodes" : [
        {
            "mesh" : 0,
            "name" : "Cube",
            "translation" : [
                0,
                0.9873474836349487,
                0
            ]
        },
        {
            "name" : "Light",
            "rotation" : [
                0.16907575726509094,
                0.7558803558349609,
                -0.27217137813568115,
                0.570947527885437
            ],
            "translation" : [
                4.076245307922363,
                5.903861999511719,
                -1.0054539442062378
            ]
        },
        {
            "name" : "Camera",
            "rotation" : [
                0.483536034822464,
                0.33687159419059753,
                -0.20870360732078552,
                0.7804827094078064
            ],
            "translation" : [
                7.358891487121582,
                4.958309173583984,
                6.925790786743164
            ]
        },
        {
            "name" : "Empty",
            "rotation" : [
                0.5,
                0.5,
                -0.5,
                0.4999999701976776
            ]
        }
    ],
    "materials" : [
        {
            "doubleSided" : true,
            "extensions" : {
                "KHR_materials_transmission" : {
                    "transmissionFactor" : 1
                }
            },
            "name" : "Transparent",
            "pbrMetallicRoughness" : {
                "baseColorFactor" : [
                    0.800000011920929,
                    0.800000011920929,
                    0.800000011920929,
                    1
                ],
                "metallicFactor" : 0,
                "roughnessFactor" : 0
            }
        },
        {
            "doubleSided" : true,
            "name" : "Putih",
            "pbrMetallicRoughness" : {
                "baseColorFactor" : [
                    0.800000011920929,
                    0.800000011920929,
                    0.800000011920929,
                    1
                ],
                "metallicFactor" : 0,
                "roughnessFactor" : 0.5
            }
        },
        {
            "doubleSided" : true,
            "name" : "Hijau",
            "pbrMetallicRoughness" : {
                "baseColorFactor" : [
                    0.015675462782382965,
                    0.22025775909423828,
                    0.004887173417955637,
                    1
                ],
                "metallicFactor" : 0,
                "roughnessFactor" : 0.5
            }
        }
    ],
    "meshes" : [
        {
            "name" : "Cube",
            "primitives" : [
                {
                    "attributes" : {
                        "POSITION" : 0,
                        "NORMAL" : 1,
                        "TEXCOORD_0" : 2
                    },
                    "indices" : 3,
                    "material" : 0
                },
                {
                    "attributes" : {
                        "POSITION" : 4,
                        "NORMAL" : 5,
                        "TEXCOORD_0" : 6
                    },
                    "indices" : 7,
                    "material" : 1
                },
                {
                    "attributes" : {
                        "POSITION" : 8,
                        "NORMAL" : 9,
                        "TEXCOORD_0" : 10
                    },
                    "indices" : 11,
                    "material" : 2
                }
            ]
        }
    ],
    "accessors" : [
        {
            "bufferView" : 0,
            "componentType" : 5126,
            "count" : 29,
            "max" : [
                0.6637499928474426,
                6.130616188049316,
                2.6840100288391113
            ],
            "min" : [
                -0.9448499083518982,
                0.6501975059509277,
                -1.4262117147445679
            ],
            "type" : "VEC3"
        },
        {
            "bufferView" : 1,
            "componentType" : 5126,
            "count" : 29,
            "type" : "VEC3"
        },
        {
            "bufferView" : 2,
            "componentType" : 5126,
            "count" : 29,
            "type" : "VEC2"
        },
        {
            "bufferView" : 3,
            "componentType" : 5123,
            "count" : 45,
            "type" : "SCALAR"
        },
        {
            "bufferView" : 4,
            "componentType" : 5126,
            "count" : 28697,
            "max" : [
                1.1826163530349731,
                6.584491729736328,
                2.9756252765655518
            ],
            "min" : [
                -1.027069330215454,
                -1.0511804819107056,
                -2.749730348587036
            ],
            "type" : "VEC3"
        },
        {
            "bufferView" : 5,
            "componentType" : 5126,
            "count" : 28697,
            "type" : "VEC3"
        },
        {
            "bufferView" : 6,
            "componentType" : 5126,
            "count" : 28697,
            "type" : "VEC2"
        },
        {
            "bufferView" : 7,
            "componentType" : 5123,
            "count" : 46500,
            "type" : "SCALAR"
        },
        {
            "bufferView" : 8,
            "componentType" : 5126,
            "count" : 254,
            "max" : [
                1.0765384435653687,
                6.355687141418457,
                2.899686336517334
            ],
            "min" : [
                -0.9451220631599426,
                -0.7040916681289673,
                -2.6704440116882324
            ],
            "type" : "VEC3"
        },
        {
            "bufferView" : 9,
            "componentType" : 5126,
            "count" : 254,
            "type" : "VEC3"
        },
        {
            "bufferView" : 10,
            "componentType" : 5126,
            "count" : 254,
            "type" : "VEC2"
        },
        {
            "bufferView" : 11,
            "componentType" : 5123,
            "count" : 426,
            "type" : "SCALAR"
        }
    ],
    "bufferViews" : [
        {
            "buffer" : 0,
            "byteLength" : 348,
            "byteOffset" : 0
        },
        {
            "buffer" : 0,
            "byteLength" : 348,
            "byteOffset" : 348
        },
        {
            "buffer" : 0,
            "byteLength" : 232,
            "byteOffset" : 696
        },
        {
            "buffer" : 0,
            "byteLength" : 90,
            "byteOffset" : 928
        },
        {
            "buffer" : 0,
            "byteLength" : 344364,
            "byteOffset" : 1020
        },
        {
            "buffer" : 0,
            "byteLength" : 344364,
            "byteOffset" : 345384
        },
        {
            "buffer" : 0,
            "byteLength" : 229576,
            "byteOffset" : 689748
        },
        {
            "buffer" : 0,
            "byteLength" : 93000,
            "byteOffset" : 919324
        },
        {
            "buffer" : 0,
            "byteLength" : 3048,
            "byteOffset" : 1012324
        },
        {
            "buffer" : 0,
            "byteLength" : 3048,
            "byteOffset" : 1015372
        },
        {
            "buffer" : 0,
            "byteLength" : 2032,
            "byteOffset" : 1018420
        },
        {
            "buffer" : 0,
            "byteLength" : 852,
            "byteOffset" : 1020452
        }
    ],
    "buffers" : [
        {
            "byteLength" : 1021304,
            "uri" : "Lemari Hijau.bin"
        }
    ]
}
